#!OML:ASF F:\VICON\USERDATA\INSTALL\rory3\rory3.ASF
:FULLY-SPECIFIED
:DEGREES
3131
root 0.224491 17.4773 -0.0708255 5.39172 1.4677 -2.14168
lowerback -3.14087 -0.333085 -0.352558
upperback -4.3335 -0.426696 0.641372
thorax -2.68283 -0.191883 0.853039
lowerneck -12.7103 -13.821 -17.9337
upperneck 29.3075 -21.0616 15.0959
head 16.3835 -9.4167 5.12181
rclavicle -2.34814e-015 -9.93923e-016
rhumerus -39.2605 1.05783 -88.9345
rradius 23.379
rwrist 18.0189
rhand -1.72331 14.8801
rfingers 7.12502
rthumb 23.9387 -13.6476
lclavicle -2.34814e-015 -9.93923e-016
lhumerus -33.1683 1.39394 90.3953
lradius 15.8095
lwrist -27.126
lhand -3.62482 25.729
lfingers 7.12502
lthumb 22.1142 54.4844
rfemur 0 0 0
rtibia 0
rfoot 0 0
rtoes 0
lfemur -5.92791 -21.2909 -16.2913
ltibia 15.2719
lfoot -15.2312 17.5449
ltoes -15.3131
3132
root 0.223248 17.4769 -0.0720801 5.34685 1.44444 -2.14254
lowerback -3.17677 -0.329026 -0.39384
upperback -4.27283 -0.42079 0.650633
thorax -2.59968 -0.188066 0.885177
lowerneck -12.7639 -13.8565 -17.9512
upperneck 29.3153 -21.1314 15.1594
head 16.4309 -9.437 5.13129
rclavicle -3.59055e-015 -1.98785e-015
rhumerus -39.1547 0.9706 -88.8927
rradius 23.328
rwrist 18.099
rhand -1.6857 14.8839
rfingers 7.12502
rthumb 23.9748 -13.6391
lclavicle -3.59055e-015 -1.98785e-015
lhumerus -33.0978 0.805194 90.7926
lradius 16.0219
lwrist -26.6968
lhand -3.60551 25.6284
lfingers 7.12502
lthumb 22.1327 54.3815
rfemur 0 0 0
rtibia 0
rfoot 0 0
rtoes 0
lfemur -5.83638 -21.267 -16.3052
ltibia 15.2015
lfoot -15.3041 17.4824
ltoes -14.7926
3133
root 0.222956 17.4773 -0.0733355 5.31297 1.40433 -2.00629
lowerback -3.21276 -0.322064 -0.561971
upperback -4.22062 -0.409806 0.630536
thorax -2.52483 -0.178622 0.958346
lowerneck -12.8046 -13.8957 -18.0118
upperneck 29.3323 -21.1911 15.2029
head 16.4804 -9.4604 5.14209
rclavicle 2.57178e-015 3.97569e-015
rhumerus -39.083 0.986537 -88.8713
rradius 23.3193
rwrist 18.0212
rhand -1.69208 14.8208
rfingers 7.12502
rthumb 23.9687 -13.7029
lclavicle 2.57178e-015 3.97569e-015
lhumerus -33.0627 0.0765824 91.276
lradius 16.1858
lwrist -26.0117
lhand -3.90592 25.2375
lfingers 7.12502
lthumb 21.8443 54.0245
rfemur 0 0 0
rtibia 0
rfoot 0 0
rtoes 0
lfemur -5.76067 -21.2798 -16.4806
ltibia 15.1611
lfoot -15.24 17.5397
ltoes -15.0224
3134
root 0.224531 17.4779 -0.0756318 5.31081 1.39039 -1.97516
lowerback -3.24125 -0.323338 -0.575262
upperback -4.23435 -0.411464 0.616603
thorax -2.52304 -0.179265 0.951352
lowerneck -12.755 -13.9082 -18.0038
upperneck 29.403 -21.2126 15.1395
head 16.4963 -9.47736 5.11304
rclavicle -4.36084e-015 -1.19271e-015
rhumerus -39.1305 1.00063 -88.8725
rradius 23.3242
rwrist 18.0436
rhand -1.66808 14.8513
rfingers 7.12502
rthumb 23.9917 -13.6695
lclavicle -4.36084e-015 -1.19271e-015
lhumerus -33.1975 -0.761422 91.7553
lradius 16.4451
lwrist -25.3244
lhand -3.99535 25.1257
lfingers 7.12502
lthumb 21.7584 53.9227
rfemur 0 0 0
rtibia 0
rfoot 0 0
rtoes 0
lfemur -5.7497 -21.2779 -16.5239
ltibia 15.1448
lfoot -15.12 17.6321
ltoes -15.7594
3135
root 0.225776 17.4776 -0.0779988 5.3133 1.41299 -2.04337
lowerback -3.25327 -0.327938 -0.509219
upperback -4.27982 -0.417851 0.642253
thorax -2.56346 -0.183564 0.940785
lowerneck -12.6164 -13.9181 -18.0315
upperneck 29.4095 -21.2338 15.1054
head 16.4701 -9.50164 5.105
rclavicle -2.70844e-015 -9.93923e-016
rhumerus -39.2464 1.00754 -88.8475
rradius 23.3555
rwrist 18.0983
rhand -1.67698 14.8721
rfingers 7.12502
rthumb 23.9832 -13.6498
lclavicle -2.70844e-015 -9.93923e-016
lhumerus -33.3461 -1.20999 92.061
lradius 16.6391
lwrist -25.1166
lhand -4.27476 24.7435
lfingers 7.12502
lthumb 21.4901 53.5715
rfemur 0 0 0
rtibia 0
rfoot 0 0
rtoes 0
lfemur -5.75345 -21.263 -16.4465
ltibia 15.1206
lfoot -14.8474 17.7297
ltoes -16.8181
3136
root 0.225558 17.4774 -0.0786633 5.3125 1.41293 -2.07687
lowerback -3.30215 -0.329635 -0.524523
upperback -4.2805 -0.419036 0.682393
thorax -2.5364 -0.183177 0.990277
lowerneck -12.4363 -13.9399 -18.1151
upperneck 29.3151 -21.2784 15.1593
head 16.414 -9.5361 5.13638
rclavicle -6.8208e-015 -1.19271e-015
rhumerus -39.2758 1.07785 -88.8292
rradius 23.3679
rwrist 17.9744
rhand -1.64501 14.8679
rfingers 7.12502
rthumb 24.0138 -13.65
lclavicle -6.8208e-015 -1.19271e-015
lhumerus -33.4094 -1.76896 92.4303
lradius 16.8102
lwrist -24.8517
lhand -4.57702 24.259
lfingers 7.12502
lthumb 21.1998 53.1198
rfemur 0 0 0
rtibia 0
rfoot 0 0
rtoes 0
lfemur -5.75918 -21.3216 -16.4041
ltibia 15.1245
lfoot -14.959 17.7001
ltoes -16.1206
3137
root 0.225699 17.4774 -0.0794816 5.29467 1.40825 -2.07338
lowerback -3.33514 -0.333651 -0.538213
upperback -4.25283 -0.424068 0.689658
thorax -2.48905 -0.185506 1.005
lowerneck -12.2502 -13.9434 -18.187
upperneck 29.1409 -21.3083 15.2832
head 16.3248 -9.55765 5.19793
rclavicle -1.18153e-014 2.78299e-015
rhumerus -39.1877 1.04608 -88.7993
rradius 23.2997
rwrist 18.0019
rhand -1.6718 14.8529
rfingers 7.12502
rthumb 23.9881 -13.6683
lclavicle -1.18153e-014 2.78299e-015
lhumerus -33.3697 -2.2634 92.7228
lradius 16.873
lwrist -24.5718
lhand -4.46462 24.4822
lfingers 7.12502
lthumb 21.3077 53.3308
rfemur 0 0 0
rtibia 0
rfoot 0 0
rtoes 0
lfemur -5.75797 -21.3121 -16.4148
ltibia 15.1571
lfoot -15.1722 17.6363
ltoes -15.515
3138
root 0.225891 17.4773 -0.0801498 5.30542 1.37019 -2.07481
lowerback -3.36975 -0.322884 -0.526018
upperback -4.27323 -0.409755 0.689447
thorax -2.49116 -0.178612 0.997996
lowerneck -12.0936 -13.9477 -18.2685
upperneck 29.0981 -21.3505 15.3775
head 16.3073 -9.58504 5.24871
rclavicle -1.20513e-014 -1.76918e-014
rhumerus -39.1526 1.00498 -88.7713
rradius 23.2188
rwrist 18.1015
rhand -1.70054 14.8596
rfingers 7.12502
rthumb 23.9606 -13.6652
lclavicle -1.20513e-014 -1.76918e-014
lhumerus -33.3755 -2.52346 92.8798
lradius 16.8991
lwrist -24.5552
lhand -4.134 24.7162
lfingers 7.12502
lthumb 21.6253 53.5286
rfemur 0 0 0
rtibia 0
rfoot 0 0
rtoes 0
lfemur -5.77701 -21.3585 -16.4177
ltibia 15.1854
lfoot -15.2714 17.7062
ltoes -15.5346
3139
root 0.225386 17.4778 -0.0807165 5.31072 1.3788 -2.14519
lowerback -3.43577 -0.305487 -0.438479
upperback -4.28186 -0.387532 0.697567
thorax -2.46401 -0.169885 0.957183
lowerneck -11.9942 -13.9591 -18.3036
upperneck 29.1047 -21.3903 15.4069
head 16.3079 -9.60865 5.26303
rclavicle -4.09993e-016 2.98177e-015
rhumerus -39.1309 0.9439 -88.7436
rradius 23.1679
rwrist 18.1757
rhand -1.72766 14.8856
rfingers 7.12502
rthumb 23.9346 -13.6426
lclavicle -4.09993e-016 2.98177e-015
lhumerus -33.3973 -2.84379 93.0333
lradius 16.9731
lwrist -24.588
lhand -4.30374 24.3044
lfingers 7.12502
lthumb 21.4623 53.1355
rfemur 0 0 0
rtibia 0
rfoot 0 0
rtoes 0
lfemur -5.80981 -21.4076 -16.3322
ltibia 15.2229
lfoot -15.2934 17.7636
ltoes -15.3563
3140
root 0.224922 17.4785 -0.0814086 5.32654 1.38064 -2.21173
lowerback -3.51916 -0.302703 -0.401744
upperback -4.2738 -0.383602 0.739907
thorax -2.40902 -0.168498 0.979609
lowerneck -12.0226 -13.9662 -18.2848
upperneck 29.1519 -21.3969 15.3695
head 16.3298 -9.61052 5.24224
rclavicle 1.46976e-014 1.43125e-014
rhumerus -39.0754 0.906084 -88.675
rradius 23.1009
rwrist 18.2063
rhand -1.76553 14.9179
rfingers 7.12502
rthumb 23.8983 -13.6151
lclavicle 1.46976e-014 1.43125e-014
lhumerus -33.3285 -3.01487 93.1604
lradius 16.9934
lwrist -24.7147
lhand -4.56334 23.6681
lfingers 7.12502
lthumb 21.2129 52.5274
rfemur 0 0 0
rtibia 0
rfoot 0 0
rtoes 0
lfemur -5.85431 -21.4063 -16.2473
ltibia 15.2691
lfoot -15.4265 17.7461
ltoes -14.8951
3141
root 0.224888 17.478 -0.0828935 5.34442 1.36699 -2.23788
lowerback -3.58645 -0.301561 -0.39416
upperback -4.28296 -0.381761 0.761624
thorax -2.38079 -0.167518 0.997345
lowerneck -11.9866 -13.9604 -18.3244
upperneck 29.1738 -21.4047 15.4077
head 16.3475 -9.61622 5.26651
rclavicle -6.47293e-015 -1.19271e-015
rhumerus -39.0631 0.952386 -88.6905
rradius 23.0736
rwrist 18.1527
rhand -1.79389 14.8626
rfingers 7.12502
rthumb 23.8711 -13.6739
lclavicle -6.47293e-015 -1.19271e-015
lhumerus -33.2709 -3.12411 93.2312
lradius 17.0148
lwrist -24.8924
lhand -4.63502 23.4955
lfingers 7.12502
lthumb 21.1441 52.3625
rfemur 0 0 0
rtibia 0
rfoot 0 0
rtoes 0
lfemur -5.91035 -21.3623 -16.2056
ltibia 15.3173
lfoot -15.4066 17.6752
ltoes -14.769
3142
root 0.224464 17.4782 -0.0839317 5.34207 1.3557 -2.26449
lowerback -3.61447 -0.301124 -0.361852
upperback -4.31759 -0.381597 0.760219
thorax -2.40112 -0.168163 0.977804
lowerneck -11.9187 -13.958 -18.3413
upperneck 29.2311 -21.42 15.4007
head 16.3654 -9.62915 5.2689
rclavicle 1.76794e-014 3.57812e-015
rhumerus -39.0949 0.840819 -88.6643
rradius 23.0007
rwrist 18.3154
rhand -1.82781 14.8833
rfingers 7.12502
rthumb 23.8385 -13.6575
lclavicle 1.76794e-014 3.57812e-015
lhumerus -33.2859 -3.04638 93.1357
lradius 16.9983
lwrist -25.2662
lhand -4.49544 23.2874
lfingers 7.12502
lthumb 21.2781 52.1394
rfemur 0 0 0
rtibia 0
rfoot 0 0
rtoes 0
lfemur -5.92194 -21.3942 -16.1728
ltibia 15.3307
lfoot -15.2804 17.7071
ltoes -15.0721
